<svg width="105" height="105" viewBox="0 0 105 105" fill="none" xmlns="http://www.w3.org/2000/svg">
<path fill-rule="evenodd" clip-rule="evenodd" d="M49.7897 5.96422C34.4257 7.08132 21.5622 19.7509 16.6972 37.1007L16.0769 37.437L12.881 36.3797C12.8194 36.2576 12.7706 36.1614 12.7218 36.0651L12.7215 36.0645C12.6729 35.9686 12.6242 35.8726 12.5628 35.7508C18.208 17.9629 32.6 5.0589 49.721 4L50.2454 4.50116V5.47438L49.7897 5.96422ZM87.2996 37.1007C82.4362 19.7509 69.5711 7.0797 54.2087 5.96422H54.2103L53.7546 5.47438V4.50116L54.279 4C71.3985 5.0589 85.7904 17.9629 91.434 35.7508C91.3732 35.8714 91.3248 35.9668 91.2766 36.0619L91.275 36.0651L91.2732 36.0686L91.2715 36.072C91.2239 36.1659 91.176 36.2605 91.1159 36.3797L87.92 37.437L87.2996 37.1007ZM76.6056 88.3595L76.5937 88.3587C76.2997 88.3382 76.1603 88.3285 75.8622 88.3094C69.3872 95.0055 61.0737 99.0406 52.0008 99.0406C42.9279 99.0406 34.6144 95.0055 28.1378 88.3094L27.3944 88.3611L26.1474 90.0925C26.161 90.2204 26.1718 90.3239 26.1826 90.4275L26.1827 90.428C26.1934 90.5312 26.2042 90.6344 26.2177 90.7618C33.3354 97.1718 42.2788 101 52.0024 101C61.726 101 70.6694 97.1718 77.7871 90.7618C77.8017 90.6242 77.8131 90.5147 77.8248 90.4031L77.8386 90.2706L77.8574 90.0925L76.6088 88.3611L76.6056 88.3595ZM25.137 84.853C25.1402 85.0745 25.1434 85.2248 25.1482 85.4463H25.1498L23.7093 87.4461L23.6928 87.447C23.3924 87.4642 23.2497 87.4723 22.9435 87.4914C14.9705 78.6581 10 66.2326 10 52.4588C10 48.2167 10.4796 44.1072 11.3653 40.1853L11.6835 40.0042L12.0016 39.8231L15.327 40.9241L15.6532 41.4867C14.9721 45.0061 14.606 48.6791 14.606 52.4588C14.606 65.0508 18.6205 76.4691 25.137 84.853ZM88.6714 40.9241L88.3452 41.4867C89.0279 45.0061 89.3924 48.6791 89.3924 52.4588C89.3924 65.0508 85.3779 76.4691 78.8614 84.853C78.8566 85.0745 78.8534 85.2248 78.8502 85.4463L80.2907 87.4461L81.0565 87.4914C89.0295 78.6564 94 66.2309 94 52.4588C94 48.2167 93.5204 44.1056 92.6347 40.1853L92.3165 40.0042L91.9984 39.8231L88.673 40.9241H88.6714ZM35.588 75.4846C35.1276 76.8862 34.5616 78.0502 33.895 78.983V79.3726H53.0432C58.8882 79.3726 63.8348 78.1553 67.8828 75.719C71.9308 73.2827 73.9549 69.4723 73.9549 64.2877C73.9549 61.5427 73.2642 59.1436 71.8813 57.0969C70.4984 55.0502 68.7142 53.4304 66.5367 52.2373C64.356 51.0458 62.0378 50.2957 59.5789 49.9821V49.8269C62.8579 49.2061 65.6925 47.8707 68.0731 45.8208C70.4568 43.7742 71.6495 41.0162 71.6495 37.542C71.6495 33.1884 69.8812 30.0004 66.3432 27.978C62.8084 25.9556 58.375 24.9468 53.0432 24.9468H33.895V25.3364C34.5616 26.2692 35.1276 27.4332 35.588 28.8348C36.0501 30.2332 36.2787 31.6607 36.2787 33.1092V71.2102C36.2787 72.6587 36.0517 74.0862 35.588 75.4846ZM60.6181 46.0165C58.3862 48.089 55.3486 49.1269 51.5036 49.1269L51.502 49.1253H43.5834V27.7452C46.0439 26.9676 48.4276 26.578 50.7362 26.578C53.502 26.578 55.8858 27.0711 57.8858 28.0556C59.8858 29.0401 61.3967 30.3868 62.4231 32.0988C63.4495 33.8076 63.9627 35.7282 63.9627 37.8508C63.9627 41.2231 62.8451 43.9439 60.6181 46.0165ZM58.8866 76.0278C56.682 77.1707 54.1192 77.7398 51.1966 77.7398L51.1982 77.7414C49.9688 77.7414 48.6722 77.625 47.3149 77.3906C45.9559 77.1594 44.7121 76.7827 43.585 76.2638V50.7613H51.5819C54.4005 50.7613 56.8882 51.3174 59.0401 52.4313C61.1936 53.5468 62.8707 55.1295 64.0746 57.1761C65.2784 59.2228 65.8828 61.6946 65.8828 64.2877C65.8828 66.8808 65.2656 69.2007 64.0362 71.2474C62.8068 73.294 61.0897 74.888 58.8866 76.0278Z" fill="black"/>
</svg>
