<svg xmlns="http://www.w3.org/2000/svg" width="220" height="75" fill="none">
  <style>
    .logo {
      fill: #000;
    }

    @media (prefers-color-scheme: dark) {
      .logo {
        fill: #fff;
      }
    }
  </style>
  <path class="logo" fill="#000" d="M44.83 21.03c0-5.31-5.14-8.43-12.36-8.43H17.8l-.06.29c.8 1.56 1.16 3.93.64 6.53l-5.2 26.8a13.8 13.8 0 0 1-3.12 6.53l-.06.28h15.94c11.32 0 16.75-5.2 16.75-12.47 0-5.2-4.33-8.38-8.83-9.25l.05-.17c4.68-.34 10.92-3.3 10.92-10.1Zm-9.53 19c0 6.88-4.39 11.68-10.92 11.68-1.61 0-3.75-.3-5.2-1.1l3.64-18.66h4.28c5.49 0 8.2 3.3 8.2 8.09Zm-7.45-9.4h-4.8l3.12-15.95c1.5-.64 3.07-.81 4.45-.81 5.08 0 7.1 3.12 7.1 6.93 0 5.9-4.04 9.82-9.87 9.82ZM61.05 23.46c-8.43 0-15.25 7.85-15.25 18.08 0 7.1 4.39 12.19 11.78 12.19 8.44 0 15.31-7.86 15.31-18.08 0-7.1-4.45-12.2-11.84-12.2Zm-3.4 29c-3.07 0-5.03-2.72-5.03-9.07 0-8.84 3.4-18.66 8.43-18.66 3.06 0 5.02 2.66 5.02 9.07 0 8.78-3.4 18.66-8.43 18.66ZM157.74 23.46c-4.68 0-8.49 3.81-10.92 10.4h-.28L150.8 10h-.29l-9.07 3.06-.05.29c1.56 1.27 1.96 2.72 1.2 6.99l-3.35 18.9-1.68 5.36c-1.33 3.87-3.03 6.05-4.75 6.18-1.1.08-2.8-.92-2.34-3.3l4.62-24.02h-.3l-5.3 2.66a9.36 9.36 0 0 0-6.88-2.66c-9.02 0-15.3 8.38-16.27 17.45v.01l-.02.16-.04.47c-.09.75-.27 2.04-.66 3.14v.01c-1.33 3.86-3.02 6.04-4.75 6.17-1.1.08-2.81-.92-2.35-3.29l3.1-13.15c.41-1.61.59-3 .59-4.21 0-4.86-2.78-6.76-6.3-6.76-4.8 0-8.72 4.04-11.2 10.51h-.3l2.03-10.51h-.3l-9.12 3.06-.06.29c1.5 1.27 1.97 2.6 1.1 6.99l-3.7 19.23h6.36l2.13-11.2c2.84-9.36 6.88-14.15 10.34-14.15 2.08 0 3.24 1.67 2.49 4.79l-3 12.88c-.3 1.21-.41 2.25-.41 3.18 0 3.7 3.81 5.37 6.46 5.19 2.75-.2 5.7-1.45 7.69-7.66.72 4.53 3.31 7.67 7.87 7.67 5.03 0 8.38-3.93 10.46-9.7h.28l-.34 2.01c-.12.81-.23 1.68-.23 2.26 0 3.7 3.56 5.61 6.21 5.43 2.48-.18 5.13-1.3 7.08-6.1v.03c2.13 3.7 5.89 6.07 10.91 6.07 9.94 0 16.81-10.17 16.81-20.28 0-5.89-2.88-10-7.74-10ZM127.3 32c-2.25 8.6-5.72 17.85-10.34 17.85-2.83 0-4.16-2.6-4.16-6.53 0-7.4 4.16-18.48 10.22-18.48 2.31 0 4.68 2.25 4.28 7.16Zm21.32 20.33c-2.49 0-4.57-1.85-4.4-6.7 2.38-9.47 6.48-18.37 10.98-18.37 2.2 0 3.7 2.02 3.7 5.9 0 7.85-4.56 19.17-10.28 19.17ZM207.86 23.46c-9.37-11.82-25.33.47-30.48 10.34h-.29l1.97-10.34h-.3l-9.12 3.06-.06.29c1.5 1.27 1.96 2.6 1.1 6.99l-3.7 19.23h6.36l2.3-12.01c2.14-8.2 14.33-20.9 25.93-15.27a9.8 9.8 0 0 1 5.2 8.91c0 5.38-3.41 12.94-7.63 18.2 0-3.23-.06-4.59-.17-7.19-.45-10.3-3.56-15.05-8.09-14.67-3.34.28-6 3.77-6.24 10.64h.93c.29-2.88.95-6.28 2.6-6.81 2.14-.7 4.33 3.45 4.9 14.54.18 3.12.24 5.22.24 8.98-2.14 1.62-4.34 2.6-6.76 2.6-2.37 0-4.4-.98-6.13-3.12h-.28l-.4 6.93c.51.23 1.38.35 2.19.35 15.13 0 28.07-22.5 28.07-35.12 0-3-1.21-5.26-2.14-6.53Z"/>
</svg>